# xmcd
#
# Track frame offsets: 
#        179
#        13026
#        22741
#        33026
#        47786
#        62677
#        76832
#        91029
#        102328
#        114034
#        125231
#
# Disc length: 1834 seconds
#
# Revision: 1
# Processed by: cddbd v1.5.2PL0 Copyright (c) Steve Scherf et al.
# Submitted via: ExactAudioCopy v1.0b3
#
DISCID=7507280b
DTITLE=Johnny Cash - Any Old Wind That Blows
DYEAR=1973
DGENRE=Country
TTITLE0=Any Old Wind That Blows
TTITLE1=Kentucky Straight
TTITLE2=The Loving Gift (with June Carter Cash)
TTITLE3=The Good Earth
TTITLE4=Best Friend
TTITLE5=Oney
TTITLE6=The Ballad Of Annie Palmer
TTITLE7=Too Little, Too Late
TTITLE8=If I Had A Hammer (with June Carter Cash)
TTITLE9=Country Trash
TTITLE10=Welcome Back Jesus
EXTD=
EXTT0=
EXTT1=
EXTT2=
EXTT3=
EXTT4=
EXTT5=
EXTT6=
EXTT7=
EXTT8=
EXTT9=
EXTT10=
PLAYORDER=
